<svg width="512" height="512" xmlns="http://www.w3.org/2000/svg"><g><title>Notes</title><path d="m171.66666,341.33333l170.66667,0l0,42.66667l-170.66667,0l0,-42.66667zm0,-85.33334l170.66667,0l0,42.66667l-170.66667,0l0,-42.66667zm128,-213.33334l-170.66667,0c-23.46667,0 -42.66667,19.2 -42.66667,42.66667l0,341.33334c0,23.46667 18.98667,42.66667 42.45333,42.66667l256.21334,0c23.46667,0 42.66667,-19.2 42.66667,-42.66667l0,-256.00001l-128,-128zm85.33334,384.00001l-256.00001,0l0,-341.33334l149.33334,0l0,106.66667l106.66667,0l0,234.66667z" id="svg_2" fill="#e91e63"/></g></svg>